<?xml version="1.0" encoding="UTF-8"?><svg id="Calque_2" xmlns="http://www.w3.org/2000/svg" viewBox="0 0 1192.99 1050.89"><defs><style>.cls-1{fill:#f4d58c;}.cls-2{fill:#8a9498;}.cls-3{fill:#2d2c2d;}.cls-4{fill:#e2be69;}.cls-5{fill:#e10512;}.cls-6{fill:#586668;}.cls-7{fill:#717e81;}.cls-8{fill:#99a3a4;}.cls-9{fill:#d29140;}.cls-10{fill:#cd7d71;}.cls-11{fill:#eaf1e6;}.cls-12{fill:#e5ae67;}.cls-13{fill:#e5aaa4;}.cls-14{fill:#de9288;}.cls-15{fill:#5a696b;}</style></defs><g id="svg8"><path class="cls-5" d="M1050.56,507.33l-12.55,13.76-8.35,9.14h0l-7.61,8.35-2.85,3.14-75.77,83.06h96.92c.38,0,.76,.01,1.15,.02,6.15-32.17,9.38-65.39,9.38-99.36,0-6.06-.11-12.1-.32-18.11Zm-186.68,140.47c0-8.48,2.42-15.75,7.67-21.4l111.05-120.74h-85.2c-10.91,0-23.83-6.06-23.83-23.02s12.92-23.02,23.83-23.02h140.12c1.42,0,2.78,.09,4.08,.25,1.93,.25,3.73,.68,5.39,1.27-.99-8.09-2.16-16.11-3.51-24.07-1.23-7.27-2.61-14.48-4.14-21.65h0c-2.15-10.11-4.59-20.1-7.32-29.97C970.75,163.21,767.15,0,525.44,0,235.24,0,0,235.25,0,525.44c0,231.82,150.11,428.57,358.44,498.36,9.97,3.34,20.08,6.39,30.31,9.13,3.08,.84,6.17,1.64,9.28,2.41,13.03,3.24,26.25,6,39.64,8.25,7.33,1.24,14.71,2.32,22.15,3.24,6.16,.77,12.35,1.43,18.58,1.98,13.52,1.2,27.18,1.89,40.97,2.05,2.02,.02,4.04,.03,6.07,.03,1.02,0,2.03,0,3.05-.01,7.84-.04,15.64-.26,23.39-.64,20.72-1.03,41.13-3.26,61.15-6.62,3.38-.56,6.75-1.16,10.11-1.8,59.46-11.18,115.38-32.37,165.95-61.78,2.71-1.56,5.41-3.16,8.09-4.79,.81-.48,1.62-.98,2.42-1.48,.21-.12,.43-.25,.64-.39,.64-.38,1.27-.78,1.91-1.18,4.13-2.56,8.22-5.18,12.28-7.85,5.8-3.83,11.53-7.77,17.17-11.83,.99-.7,1.98-1.42,2.96-2.14,83.76-61.03,148.79-146.23,184.83-245.35,1.31-3.59,2.57-7.2,3.79-10.82,.02-.03,.03-.07,.04-.11,.08-.21,.15-.4,.22-.61,0-.02,0-.05,.02-.07,2.51-7.46,4.87-14.99,7.05-22.6h-140.38c-17.37,0-26.25-11.31-26.25-23.02Zm-176.61-210.74c-.19,.12-.39,.25-.58,.38-5.47,3.56-10.53,7.98-15.05,13.21-.12,.14-.25,.29-.36,.43-14.41,16.88-23.44,42.07-23.44,74.36,0,2.49,.05,4.97,.14,7.43h0v.03h0c.16,4,.44,7.93,.85,11.8,.01,.07,.01,.13,.02,.2,4.81,44.24,27.17,79.48,77.33,79.48s50.89-55.73,82.79-55.73c16.15,0,32.3,9.29,32.3,25.44,0,42-50.88,83.59-115.09,83.59-8.32,0-16.34-.44-24.02-1.31-.38-.04-.75-.09-1.12-.14-8.82-1.04-17.19-2.66-25.12-4.86h-.01c-.43-.12-.85-.24-1.27-.36h-.02c-11.03-3.17-21.18-7.45-30.39-12.84-.46-.27-.92-.54-1.38-.83-39.39-23.71-61.23-68.03-61.23-131.9,0-20.66,3.07-40.58,9.19-58.81,.06-.17,.11-.34,.17-.51,.97-2.91,2.03-5.77,3.18-8.58,.11-.26,.21-.52,.32-.78,5.46-13.33,12.66-25.6,21.59-36.38,.12-.15,.24-.29,.36-.44,23.81-28.6,59.73-46.74,107.33-46.74,75.92,0,117.51,47.65,117.51,75.92,0,18.58-10.09,29.88-29.88,29.88-38.36,0-27.06-52.49-87.63-52.49-13.18,0-25.63,3.61-36.49,10.55Z"/><g><path class="cls-7" d="M830.05,952.58c-.39,0-.79-.01-1.18-.03-.39-.02-.79-.05-1.18-.09-.37-.03-.74-.07-1.11-.12-2-.26-3.99-.68-5.99-1.08-.69-.14-1.39-.27-2.09-.4-1.74-.32-3.49-.56-5.25-.61,.05-.95,.1-1.89,.16-2.83-.4-.48-.7-1.24-1.21-1.41q-13.48-4.63-12.01-19.87c7.86,5.78,9.1,1.26,9.28-5.56,.28-10.64-4.65-20.22-5.87-30.53l-.34-.25,.28,.19c.69,.04,1.39,.08,2.08,.12-.12-2.61-.25-5.22-.37-7.82-3.19-11.98-6.8-23.8-12.28-34.97,.01,0,.45-.46,.45-.46-1.56,.16-1.81-.97-2.06-2.08-9.32-11.73-18.63-23.46-27.96-35.18l.57-.44-.6,.41c-5.45-3.02-9.58-7.49-13.39-12.3-.52-.32-1.05-.64-1.57-.96,1.04-1.21,1.59-.6,2,.53,5,.23,5.61-1.88,3.18-5.79-2.72-4.36-5.33-8.79-7.99-13.18l-.18-.18c-6.67-8.01-12.54-16.56-17.31-25.85l.11,.05c-1.34-2.02-2.69-4.03-4.03-6.05l.1,.09c-5.24-6.86-10.69-13.57-13.59-21.89,6.52,1.18,10.92,7.09,17.59,7.93,1.21-5.33-3.79-6.93-6.38-9.36-11.39-10.73-19.95-23.21-25.66-37.72-.33-.46-1.04-1.16-.92-1.35,.69-1.11,1.44-.52,2.13,.13,2.6,1.04,4.86,.11,7.05-1.19-.42-2.5-1.8-4.36-3.35-6.11-.04-.05-.08-.09-.12-.14-.79-.88-1.61-1.73-2.37-2.62-18.17-21.26-35.25-43.26-47.75-68.49-7.94-16.01-11.9-32.99-13.49-50.7-.5-5.55,.61-7.97,6.84-8.91,1.2-.18,2.39-.38,3.58-.61,.33-.06,.66-.12,.98-.2,14.05-2.75,27.16-8.38,38.6-17.25,18.27-14.17,32.11-30.58,24.03-56.19-4.38-14.19-14.07-24.4-24.77-33.82-.14-.13-.28-.26-.42-.38-.57-.51-1.14-1.01-1.72-1.51l.25,.04c-1.38-.74-2.76-1.47-4.15-2.21-1.22-.7-2.45-1.4-3.68-2.1-10.16-4.48-20.58-8.16-31.54-10.17-3.36,.03-6.72,.06-10.09,.09-8.17,3.2-14.36,2.46-19.27-.82-.22-.14-.43-.29-.64-.44-4.18-3.05-7.41-7.98-10.15-13.88-14.36-13.43-28.09-27.68-46.33-36.16-5.25-.16-5.5-4.53-6.95-8.05-6.26-15.18-16.11-26.4-33.15-29.5l-.19,.19c3.66,7.26,7.51,14.42,10.88,21.81,1.64,3.59,1.72,8.45-3.84,7.22-14.47-3.17-28.67-.49-42.97,.42-11.21-.55-22.08,2.16-33.11,3.36-.73,.09-1.46,.19-2.18,.28-10,1.9-20.02,3.72-30,5.74-4,.81-7.8,1.32-11.14-1.71-1.72,6.27-7.33,5.36-11.88,6.41-4.02,1.28-8.04,2.56-12.07,3.84-1.91,.35-3.83,.7-5.75,1.04-15.84,6-32,11.42-44.01,24.35,2.53,8.74-5.77,13.14-8.33,19.89-3.53,9.3-.27,18.87-3.31,27.87,.03,.68,.07,1.36,.11,2.04,.07,1.84,.15,3.69,.23,5.53l.05,.25c1.98,3.11,4.4,6.14,1.55,10,2.41,18.52,4.31,37.17,13,54.16,2.62,5.12,5.09,10.68,12.97,7.01,2.98-1.39,5.4,1.08,7.31,3.63,4.12,5.52,8.51,10.84,12.64,16.35,2.78,3.72,6.03,7.9,1.68,12.22-3.8,3.77-7.2-.08-10.49-1.89-2.52-1.39-5.06-4.05-7.78-.83-2.96,3.49-.1,6.45,2.09,8.52,6.28,5.9,14.42,9.01,21.75,13.33,11.6,6.82,23.55,13.15,29.8,26.06,3.85-.2,7.71-.39,11.56-.59,.75-.87,1.5-1.75,2.25-2.62,.39,.38,1.12,.76,1.11,1.13-.03,1.59-1.42,1.81-2.57,2.23h0c-.24,2.83-3.65,5.65-1.18,8.28,2.77,2.93,6.14,.43,9.17-.55,1.25-.4,2.48-.89,3.63-1.5,3.31-1.73,6.95-6.38,10.22-3.03,2.82,2.91-1.93,6.24-3.69,9.14-3.52,5.79-1.61,7.68,4.54,7.06,.98-.1,1.98-.03,2.96-.15,14.91-1.77,14.98-1.76,10.71,11.84-1.45,4.63-.67,6.18,4.48,4.67,5.6-1.64,10.44-5.6,16.91-5.55,1.94,4.94-3.91,7.24-3.82,12.01,6.13,1.46,10.96-2.84,16.36-4.03,6.87-1.51,10.37,.09,12.53,6.92,4.04,12.79,4.84,25.86,3.71,38.97-1.04,12.1-4.95,21.94-18.3,27.12-18.28,7.11-34.72,18.7-54.22,23.12-11.8,7.21-25.45,9.31-38.21,13.88,1.51,7.15,3.02,14.31,4.54,21.46,11.06-5.52,22.75-8.76,35.07-9.72,16.31-2.56,32.73-1.89,49.14-2.09,6.31-.07,8.92,1.98,8.53,8.55-.5,8.53,.04,17.11-.38,25.64-.54,10.86-8.1,19.03-11.88,28.7-11.53,29.45-10.9,59.68-8.55,90.25,.83,10.8,2.01,21.5,4.92,32,3.5,12.6,8.94,23.82,19.27,32.4,10.01,8.32,9.9,19.29,6.96,30.68-1.23,4.74-3.63,9.24-2.42,14.38,6.48,.21,12.98,.27,19.45,.66,7.37,.45,14.04,2.52,18.11,9.44,1.73,.86,3.8,1.36,5.15,2.63,3.19,3,6.5,5.51,9.96,7.47,20.72-1.03,41.13-3.26,61.15-6.62,3.35-.67,6.73-1.25,10.11-1.8,59.46-11.18,115.38-32.37,165.95-61.78,.1-.35,.19-.7,.29-1.05-.44-.48-1.23-.94-1.26-1.45-.46-6.36-7.62-12.96-2.89-18.39,4.39-5.05,10.98,.98,16.37,2.33,2.14,.54,4.28,1.05,6.42,1.53,2.14,.47,4.28,.92,6.41,1.34,5.8-3.83,11.53-7.77,17.17-11.83-.51,.04-1.03,.06-1.55,.06ZM367.84,441.73c-1.66,7.42-7.87,8.59-13.55,8.82-8.01,.33-15.89-1.08-17.96-11.08-4.24-6.94-2.31-14.53-.9-21.41,1.48-7.22,7.75-9.7,15.08-8.49,13.11,5.46,20.3,18.91,17.33,32.16Zm342.62,282.1c-.39-.12-.77-.25-1.16-.38,1.04-1.34,.96-.17,1.16,.38Zm-125.16-261.69c.03-.1,.06-.2,.1-.29,.03-.09,.07-.18,.12-.27,.03-.07,.07-.15,.12-.22,.04-.07,.08-.13,.13-.2s.1-.13,.16-.2c.1-.13,.21-.26,.34-.37,.08-.08,.17-.16,.26-.23,.16-.13,.33-.25,.51-.36,.12-.07,.24-.15,.37-.21,.09-.05,.19-.1,.29-.14,.16-.08,.33-.15,.51-.21,.21-.07,.42-.14,.64-.2,.41-.11,.83-.19,1.26-.24,.11-.02,.22-.03,.32-.04,.15-.01,.31-.02,.46-.03,1.14-.7,2.29-1.4,3.43-2.1l.16-.07,.27-.12c.54-.48,1.09-.95,1.65-1.4,.28-.23,.56-.46,.85-.68,.43-.34,.87-.67,1.31-.99,.47-.37,.95-.71,1.44-1.04,.27-.19,.54-.38,.82-.56,1.47-.98,2.99-1.9,4.55-2.74,.51-.28,1.02-.55,1.54-.81,.1-.06,.2-.11,.3-.15,.54-.27,1.08-.53,1.62-.78,.58-.27,1.16-.53,1.74-.79,.3-.12,.6-.25,.9-.37s.6-.24,.9-.36c.58-.23,1.16-.45,1.75-.66,.16-.07,.33-.13,.5-.18,.45-.17,.91-.32,1.37-.47,.92-.3,1.85-.58,2.78-.84,.29-.08,.57-.16,.86-.23,.06-.02,.13-.04,.19-.05,.17-.05,.35-.09,.53-.14,.27-.07,.53-.14,.8-.2,.24-.06,.48-.12,.73-.17,.67-.16,1.34-.3,2.01-.43,.3-.06,.6-.11,.9-.17,.45-.09,.9-.17,1.34-.23,.36-.08,.72-.13,1.09-.18,.38-.06,.77-.11,1.16-.16,.6-.08,1.19-.15,1.79-.21,1.54-.16,3.08-.27,4.63-.33,.38-.01,.77-.03,1.15-.03,.86-.02,1.72-.02,2.57-.01l1.11,.03c.26,0,.53,.01,.79,.03,.48,.02,.96,.04,1.45,.08,.37,.02,.74,.05,1.11,.08,.53,.04,1.06,.09,1.58,.15,.53,.06,1.05,.12,1.58,.19,.39,.04,.78,.1,1.17,.16,.48,.07,.96,.15,1.43,.23,.65,.11,1.29,.23,1.93,.35,.02,0,.04,0,.06,0,.87,.18,1.73,.38,2.58,.59,.52,.13,1.04,.27,1.56,.41,.08,.02,.16,.04,.24,.07,.65,.18,1.29,.37,1.93,.57,.36,.11,.72,.23,1.08,.35,.33,.11,.66,.23,.99,.35,.29,.11,.58,.21,.87,.32,.39,.14,.77,.29,1.15,.45,.34,.13,.67,.27,1,.41,.15,.06,.3,.12,.45,.19,.22,.09,.43,.18,.64,.28,.33,.14,.65,.29,.97,.45,.32,.15,.64,.3,.95,.46,.32,.16,.63,.32,.95,.48,.31,.16,.62,.33,.93,.5,.62,.34,1.23,.69,1.84,1.05,.82,.49,1.63,1.01,2.42,1.56,.39,.27,.79,.54,1.18,.83,.33,.23,.65,.47,.97,.72,.22,.16,.43,.32,.64,.5,.72,.56,1.42,1.15,2.1,1.76,24.08,21.49,21.99,50.1-4.19,68.98-.37,.26-.73,.52-1.1,.77-.22,.16-.44,.31-.66,.45-.35,.24-.69,.46-1.04,.68l-.72,.45c-1.34,.84-2.68,1.59-4.01,2.25-.24,.13-.48,.25-.72,.36-.37,.18-.74,.35-1.1,.51-.22,.1-.45,.2-.67,.29-.24,.11-.47,.21-.71,.3-.23,.1-.46,.19-.7,.28-.12,.05-.24,.1-.37,.14-.31,.13-.63,.24-.95,.35-.03,.01-.05,.02-.08,.03-1.03,.36-2.07,.68-3.11,.94-.53,.14-1.07,.27-1.61,.38-.53,.12-1.07,.23-1.61,.31-.44,.08-.89,.15-1.34,.2-.1,.02-.19,.04-.27,.04-.12,.02-.23,.04-.34,.04-.3,.03-.61,.07-.9,.09-.13,.02-.26,.04-.39,.04-.04,0-.08,0-.13,0-.4,.04-.79,.07-1.19,.08-.02,.01-.03,.01-.04,0-.05,.01-.11,.01-.17,.01h-.07c-.06,.01-.13,.01-.19,.01-.08,.01-.16,.01-.24,.01-.19,.01-.38,.02-.57,.02-1.76,.03-3.53-.05-5.33-.26-.39-.05-.78-.1-1.17-.15-1.14-.14-2.29-.35-3.45-.6-.04-.01-.09-.02-.13-.03-.8-.17-1.61-.36-2.42-.58-.41-.1-.81-.21-1.23-.34-.41-.11-.82-.23-1.23-.37-.82-.25-1.65-.52-2.49-.82-2.51-.89-5.07-1.96-7.71-3.21-.87-.41-1.76-.85-2.65-1.3-2.68-1.36-5.44-2.89-8.27-4.59-1.89-1.13-3.82-2.33-5.79-3.61-.6-.35-1.15-.7-1.66-1.07-.51-.36-.98-.74-1.4-1.12-.17-.15-.33-.31-.49-.47-.16-.15-.31-.31-.45-.47-.1-.1-.19-.21-.28-.31-.48-.56-.88-1.13-1.2-1.72-.11-.2-.21-.4-.3-.6-.04-.09-.09-.17-.12-.26-.04-.08-.07-.15-.09-.23-.09-.21-.16-.42-.23-.63-.03-.08-.06-.16-.08-.25-.03-.09-.05-.17-.07-.26-.09-.34-.16-.7-.21-1.05-.02-.13-.04-.27-.05-.41-.02-.2-.03-.4-.05-.6-.02-.5-.02-1,.02-1.52,0-.05,0-.11,.01-.16,.01-.22,.03-.43,.07-.66,.01-.14,.03-.28,.06-.42,.02-.16,.04-.31,.08-.47,0-.02,0-.03,.01-.04,.03-.17,.07-.35,.11-.53,0-.04,.01-.08,.02-.12,.04-.2,.09-.4,.14-.6,.05-.23,.12-.46,.19-.69,0-.03,.01-.06,.03-.09,.03-.13,.07-.26,.12-.4,.01-.07,.04-.13,.06-.2,.05-.18,.11-.38,.19-.57,.1-.31,.22-.63,.34-.94,.07-.19,.14-.37,.22-.56,.11-.28,.23-.57,.35-.86,.7-1.64,1.3-3.21,1.78-4.7,.05-.15,.09-.3,.14-.44,.13-.39,.24-.77,.34-1.15,.06-.22,.13-.44,.18-.65,.19-.69,.34-1.37,.47-2.03,.03-.12,.05-.25,.07-.38,.06-.32,.12-.63,.16-.94,.04-.26,.07-.53,.1-.78,.03-.26,.06-.52,.08-.77,.02-.25,.04-.5,.05-.75,.01-.16,.02-.33,.02-.49,.01-.34,.01-.68,0-1,0-.14-.01-.29-.01-.43-.02-.38-.05-.75-.09-1.11-.02-.22-.05-.44-.08-.65-.04-.28-.09-.56-.14-.84-.08-.36-.16-.71-.25-1.05-.06-.22-.13-.44-.2-.66-.06-.17-.12-.34-.18-.52,.01-.02,0-.03,0-.04-.05-.16-.11-.32-.18-.48-.27-.7-.6-1.39-.98-2.06-.09-.16-.19-.32-.29-.49-.15-.26-.32-.52-.5-.77-.13-.19-.27-.4-.42-.6-.32-.45-.68-.89-1.06-1.33-.33-.38-.68-.76-1.04-1.13l-.15-.15c-.21-.22-.43-.43-.66-.64-.7-.67-1.46-1.32-2.29-1.97-.31-.24-.63-.48-.95-.72-.03-.03-.06-.05-.1-.08-.37-.27-.75-.55-1.15-.82-.73-.51-1.49-1.02-2.3-1.52-.34-.21-.69-.43-1.04-.64-1.7-1.03-5.41-.55-4.47-3.85Zm-123.92-39.07c3.86-4.12,9.47-6.03,15.18-5.77,.35,.02,.7,.04,1.04,.08,.35,.03,.69,.07,1.04,.12,.24,.03,.48,.06,.72,.11,.03,0,.06,.01,.09,.02,.12,.02,.24,.04,.35,.06,.19,.03,.38,.07,.57,.12,.22,.04,.43,.09,.64,.15,.53,.12,1.07,.27,1.6,.45,.1,.03,.2,.06,.29,.1,.61,.2,1.21,.43,1.81,.69,.06,.03,.12,.05,.18,.08,.28,.12,.56,.25,.83,.39,.32,.15,.64,.32,.96,.5,.33,.18,.65,.37,.96,.56,.19,.11,.37,.23,.55,.36,.2,.11,.38,.24,.57,.38,.16,.11,.32,.22,.48,.34,.15,.11,.3,.23,.45,.35,.18,.13,.36,.27,.53,.42,.3,.24,.59,.5,.88,.76h0l.05,.05s.11,.09,.16,.14c.24,.22,.48,.43,.7,.65,.61,.58,1.17,1.18,1.69,1.8,.51,.61,.98,1.22,1.41,1.86,.43,.62,.81,1.25,1.16,1.9,.12,.22,.23,.44,.34,.66,.02,.03,.04,.07,.05,.1,.1,.21,.2,.42,.29,.63,.11,.24,.22,.48,.31,.72,.1,.24,.19,.48,.27,.72,.03,.07,.06,.14,.08,.22,.24,.68,.44,1.36,.59,2.06,.05,.21,.1,.43,.13,.65,.03,.1,.05,.21,.06,.32,.01,.02,.01,.04,.01,.06,.03,.13,.05,.25,.06,.38,.02,.03,.02,.07,.02,.11,.01,.01,.01,.02,0,.04,.01,.01,.01,.02,.01,.04,.02,.12,.04,.23,.05,.35v.03c.02,.14,.03,.28,.04,.41,.04,.23,.05,.46,.06,.7,.01,.05,.01,.11,.01,.17,.05,.75,.04,1.51-.02,2.27-.01,.17-.02,.35-.04,.52-.11,1.17-.33,2.34-.67,3.49-.08,.29-.18,.58-.28,.87-.1,.29-.2,.57-.32,.86-.18,.48-.4,.96-.64,1.43-.07,.16-.15,.32-.24,.48,0,.01,0,.02-.01,.02-.09,.21-.21,.4-.32,.59-.15,.28-.31,.55-.49,.82-.34,.55-.71,1.08-1.11,1.6-.2,.27-.4,.53-.62,.78-.21,.26-.43,.51-.66,.76-8.49,9.31-21.88,10.31-30.69,2.29-9.11-8.3-9.64-22.8-1.16-31.82Zm-37.05,56.74c.36,.16,.44,.93,.65,1.44-.51,.19-1.15,.65-1.5,.49-.36-.17-.44-.94-.65-1.44,.52-.19,1.15-.65,1.5-.49Zm55.57,86.41c-.24-.8-.47-1.6-.71-2.39-9.25-2.85-12.99-11.7-18.56-18.14-16.97-19.6-36.21-36.93-53.92-55.75-2.05-2.17-4.47-3.9-4.62-7.2-2.56-1.66-6.24-2-7.26-7.04,4.94,.45,6.67,3.07,7.26,7.03,4.14,.45,7.39,2.59,10.25,5.43,22.35,22.23,44.12,44.99,63.86,69.61,1.47,1.84,2.91,3.57,3.03,6.03,.46,.66,.92,1.32,1.38,1.99-.24,.14-.48,.29-.71,.43Zm11.03,16.28c-1.58-.25-1.62-1.64-1.85-2.85-3.15-1.76-5.55-4.08-5.95-7.9l-.72-.48c.27,.14,.52,.27,.78,.41h0c.58,.05,1.11,.14,1.59,.27,.24,.06,.47,.14,.69,.22,.21,.08,.42,.17,.61,.27,.15,.07,.29,.15,.42,.24,.01,.01,.03,.02,.04,.03,.06,.04,.13,.08,.19,.13,.26,.18,.5,.39,.71,.62,.04,.03,.07,.06,.1,.1,.03,.03,.06,.06,.08,.1,.11,.11,.2,.23,.28,.35,.12,.16,.22,.33,.31,.5,.08,.13,.15,.26,.2,.41,.03,.05,.05,.09,.07,.15,.08,.18,.15,.36,.2,.55,.07,.19,.13,.4,.17,.61,0,.02,.01,.05,.02,.08,.03,.12,.05,.26,.07,.39,.01,.03,.02,.06,.01,.09,.04,.2,.07,.41,.09,.63,.02,.12,.03,.23,.03,.35,.05,.58,.06,1.2,.04,1.83,1.24,.19,2.6,.27,2.84,1.85,.05,.31-.73,1.09-1.03,1.05Zm4.47,6.09c-.5-.23-1.24-.35-1.41-.73-.08-.19,.03-.47,.19-.77,.06-.11,.13-.23,.19-.34,.03-.06,.07-.12,.09-.18,.02-.05,.05-.11,.07-.16h.01c.49,.23,1.23,.35,1.4,.73,.15,.34-.34,.95-.54,1.45Zm4.75,9.52c-1.73-1.42-2.69-3.22-2.14-5.66,3.34,.35,3.84,2.48,4.03,4.68,.02,.3-1.66,1.18-1.89,.98Zm5.79,4.77c-.2,.5-.41,1-.61,1.5-.5-.23-1.25-.35-1.41-.72-.16-.35,.33-.97,.53-1.47,.25,.12,.5,.23,.74,.34,.25,.11,.5,.22,.75,.34h0Zm4.11,11.1c-1.54-1.49-3.26-3.05-1.71-5.62,2.9,.3,3.36,2.46,3.59,4.63,.03,.28-1.7,1.16-1.88,.99Zm15.63,24.19c-.22-.07-.42-.14-.62-.22-.15-.06-.3-.12-.44-.19-.03-.01-.06-.02-.08-.04-.18-.08-.34-.17-.49-.26-.15-.09-.3-.18-.44-.28-.13-.09-.25-.18-.37-.28l-.02-.02c-.12-.11-.24-.21-.35-.32-.56-.56-.94-1.2-1.21-1.87-.1-.25-.19-.5-.27-.76-.07-.22-.13-.44-.18-.66-.14-.56-.25-1.13-.36-1.7-.04-.17-.07-.33-.1-.5t-.02-.01v-.03c-.57-.35-1.09-.73-1.56-1.14-.23-.2-.45-.41-.66-.62-.21-.21-.4-.43-.6-.66h0c-.19-.23-.36-.46-.54-.7h0c-.17-.25-.33-.49-.48-.74-.15-.25-.29-.5-.42-.76-.02-.04-.05-.08-.06-.12-.11-.22-.22-.44-.32-.67-.92-2.15-1.36-4.58-1.65-7.07,3.97,3.13,6.37,7.13,6.29,12.48,.01,0,.01,0,.02,0v.02h0c.91,.17,1.68,.43,2.31,.78,.15,.08,.3,.17,.43,.27,.26,.18,.49,.37,.7,.6,.07,.07,.14,.14,.2,.22,.03,.02,.04,.04,.05,.06,.06,.07,.11,.14,.16,.21,.07,.09,.13,.18,.18,.27,.06,.09,.11,.19,.16,.28,.07,.14,.14,.29,.2,.44,.07,.15,.13,.31,.17,.47,.07,.22,.13,.45,.18,.68,.05,.24,.09,.48,.12,.73,.02,.14,.03,.28,.04,.43,.01,.16,.02,.32,.02,.48,.02,.38,.02,.78,0,1.19Zm58.36,14.34c-8.5-11.05-15.1-23.05-22.75-34.24-20.86-30.53-45.62-57.49-72.06-83.1-3.22-3.12-7.53-5.59-8.2-10.73-8.94-2.39-14.52-8.89-19.64-15.97-5.37-1.58-9.58-4.57-11.88-9.87-3.63-.65-7.12-1.49-7.89-5.95-4.22,.12-7.49-1.01-7.89-5.95,1.95,.14,3.5,.83,4.77,1.88,1.27,1.04,2.28,2.46,3.15,4.04,3.62,.66,7.15,1.44,7.93,5.91,5.6,1.33,10.66,3.3,11.85,9.9,8.74,2.56,15.12,8.12,19.89,15.71,14.97,9.18,26.71,22.04,38.89,34.37,25.3,25.6,44.69,55.53,62.97,86.26,1.28,2.15,3.76,4.02,.86,7.74Zm5.06,8.91c-1.52-1.51-3.22-3.1-1.57-5.62,2.82,.43,3.33,2.54,3.5,4.74,.02,.26-1.73,1.07-1.93,.88Zm182.39,303.14c-10.35,16.19-26.16,26.8-43.1,34.93-17.71,8.51-35.35,17.53-54.98,21.31-12.93,2.48-25.88,4.33-39.08,3.66-2.9-.15-6.64-.21-7.37-3.56-.64-2.98,3.06-3.94,5.07-5.27,38.81-25.67,66.4-60.14,76.98-105.63,7.35-31.61,5.96-63.98-3.58-95.48-11.61-38.31-27.71-74.89-42.49-112-.75-1.88-1.51-3.75-2.29-5.61-.23-.56-.47-1.13-.71-1.69-.26-.63-.53-1.26-.8-1.88-.87-2.03-1.75-4.06-2.64-6.08-1.34-3.03-2.71-6.05-4.08-9.07-.92-2.01-1.84-4.02-2.77-6.03-.81-1.76-1.62-3.51-2.43-5.27-1.47-3.18-2.93-6.35-4.37-9.54-.24-.51-.47-1.03-.7-1.55-.72-1.58-1.43-3.17-2.13-4.76-.6-1.35-1.19-2.7-1.78-4.06-.6-1.35-1.18-2.71-1.75-4.07-.34-.81-.68-1.62-1.02-2.43-.47-1.12-.93-2.25-1.38-3.38-.37-.89-.73-1.79-1.08-2.69-.32-.8-.63-1.6-.94-2.4-.62-1.58-1.21-3.17-1.79-4.76-.17-.45-.33-.91-.5-1.38-.3-.82-.6-1.64-.88-2.46-.37-1.04-.72-2.09-1.07-3.14-.35-1.02-.69-2.05-1.01-3.08-1.35-4.23-2.58-8.52-3.66-12.86-3.25-13.13-5.05-26.79-1.45-40.6,5.8,21.02,13.63,41.08,21.91,61.07,.27,.65,.55,1.3,.83,1.94,.47,1.06,.95,2.1,1.46,3.14,.21,.45,.43,.89,.66,1.33,.31,.61,.62,1.22,.94,1.82,.52,.99,1.05,1.97,1.61,2.94,.17,.31,.35,.62,.53,.92,.86,1.5,1.76,2.97,2.69,4.42,.51,.8,1.02,1.59,1.54,2.37,.52,.79,1.05,1.57,1.59,2.34,1.07,1.56,2.16,3.09,3.28,4.6,.56,.77,1.13,1.53,1.7,2.29,3.99,5.32,8.19,10.49,12.3,15.71,.63,.8,1.25,1.6,1.87,2.4h.01c.34,.42,.67,.85,1,1.28,.75,.96,1.5,1.93,2.22,2.9,.4,.52,.79,1.04,1.17,1.56,.58,.77,1.15,1.54,1.71,2.31,1.74,2.39,3.91,4.37,4.12,7.64,1.87,28.79,13.55,53.12,33.38,73.84,1.94,2.02,3.97,5.21,3.84,7.76-.85,16.57,11.37,25.63,20.25,36.65,12.46,15.44,28.36,28.38,35.13,47.98,13.14,38.02,16.98,75.73-5.96,111.62Zm19.85-119.85s.01,.05,.02,.08c.02,.03,.05,.06,.07,.09l-.09-.17Zm-86.83-162.22s.01,.03,.01,.04l.11-.11s-.08,.05-.12,.07Zm-99.23-276.42l.02,.02,.41-.47-.43,.45Z"/><path class="cls-8" d="M433.62,769.53c16.3-2.56,32.73-1.9,49.13-2.09,6.31-.08,8.93,1.98,8.54,8.55-.51,8.52,.04,17.11-.38,25.64-.53,10.85-8.1,19.03-11.88,28.7-11.53,29.45-10.9,59.68-8.55,90.25,.83,10.8,2.01,21.49,4.92,32,3.5,12.61,8.94,23.82,19.27,32.41,10.01,8.31,9.9,19.29,6.96,30.67-1.22,4.74-3.62,9.25-2.42,14.38-4.75,.28-9.51,.56-14.26,.83-11.87,.66-22.45-3.57-32.97-8.38-12.57-5.74-12.69-5.67-5.02-15.89,3.34-12.07-4.32-19.97-11.02-27.95-11.61-13.82-24.3-26.97-31.65-43.69-15.47-35.22-9.13-67.88,13.03-98.27,2.9-3.98,6.05-7.77,8.97-11.73,1.95-2.65,4.39-5.55,3.62-8.9-3.23-14.03,1.26-27.23,3.72-40.68,.35-1.89,.02-3.91,0-5.87Z"/><path class="cls-8" d="M418.21,609.6c-.24,2.82-3.65,5.65-1.18,8.27,2.76,2.93,6.14,.43,9.17-.54,1.24-.4,2.47-.9,3.63-1.5,3.31-1.73,6.95-6.39,10.22-3.03,2.82,2.9-1.93,6.24-3.69,9.14-3.52,5.79-1.61,7.68,4.54,7.06,.98-.1,1.98-.03,2.96-.15,14.92-1.77,14.98-1.76,10.71,11.84-1.45,4.63-.67,6.18,4.48,4.67,5.6-1.64,10.44-5.6,16.91-5.54,1.95,4.93-3.91,7.23-3.82,12,6.12,1.46,10.96-2.84,16.36-4.03,6.87-1.51,10.37,.09,12.53,6.92,4.04,12.79,4.84,25.86,3.71,38.97-1.04,12.1-4.95,21.94-18.3,27.12-18.28,7.1-34.72,18.7-54.22,23.12-3.92-5.64-2.81-13.65-8.62-18.41-3.62-18.05-10.7-34.78-19.46-50.86-7.23-17.01-.75-33.85,.83-50.71,.45-4.84,1.58-9.59,.89-14.49,3.85-.19,7.71-.39,11.56-.59,.27,.24,.54,.49,.79,.75Z"/><path class="cls-1" d="M342.98,858.22c-7.03,.99-13.65-1.11-20.32-2.72-2.19-16.03-4.71-18.77-17.46-18.84-2.94-.02-5.88,.25-8.82,.39-1.58-19.27-3.15-38.53-4.73-57.8,11.85-.69,15.65-4.78,15.64-16.17-.01-11.97-8.85-14.47-17.73-17.08-1.37-15.95-2.76-31.91-4.1-47.86-.37-4.37,.25-8.08,6.04-7.63,5.5,7.54,13.14,13.28,17.91,21.43,1.36,2.32,3.79,2.1,6.04,2.2,.55,2.63,1.1,5.26,1.65,7.89-1.49,9.42,3.74,12.87,12.06,13.56,2.47,.34,4.95,.68,7.42,1.02,.26,4.14,2.34,7.03,5.32,9.95,5.02,4.91,10.1,9.96,12.7,16.78-6.84,.76-13.87-.85-20.57,1.58-1.76,.64-4.42,.74-4.04,3.37,.31,2.18,2.58,2.71,4.6,2.98,6.97,.93,13.94,1.86,20.9,2.79-7.18,4.99-14.6,7.94-21.96,11.01-1.78,.74-3.97,1.81-3.43,4.14,.57,2.46,3.1,2.02,4.97,2.02,8.52-.03,17.14,.91,25.42-2.09-.82,4.31-1.19,7.88-7.85,6.66-10.8-1.97-20.95,5.62-21.49,14.66-.61,10.11,6.36,16.11,19.26,16.57l-7.43,31.2Z"/><path class="cls-15" d="M808.02,963.01c2.14,.47,4.28,.92,6.41,1.34-4.06,2.67-8.15,5.29-12.28,7.85-.62-.46-1.45-.26-2.61,.89-2-.68-4.03-2.74-5.95,.13-3.28,.56-2.85,3.82-4.21,5.77-.44-.48-1.23-.94-1.26-1.45-.46-6.36-7.62-12.96-2.89-18.39,4.39-5.05,10.98,.98,16.37,2.33,2.14,.54,4.28,1.05,6.42,1.53Z"/><path class="cls-13" d="M532.59,1044.32v-.02s.02-.01,.03-.01l-.03,.03Z"/><path class="cls-13" d="M536.77,1040.14l-.22,.22c-2.4,.24-3.8,1.46-3.96,3.94-4.87,1.63-9.24,3.86-13.22,6.56-13.79-.16-27.45-.85-40.97-2.05,6.67-2.87,12.84-6.67,17-13.55-12.08,3.38-23.73,7.84-35.58,11.57-7.44-.92-14.82-2-22.15-3.24,1.17-.49,2.36-.87,3.57-1.01,15.17-1.77,29.38-6.9,43.7-11.7,4.76-.28,9.51-.56,14.27-.84,6.48,.21,12.98,.27,19.45,.66,7.37,.45,14.04,2.52,18.11,9.44Z"/><path class="cls-14" d="M484.94,1030.88c-14.32,4.8-28.53,9.93-43.7,11.7-1.21,.14-2.4,.52-3.57,1.01-13.39-2.25-26.61-5.01-39.64-8.25,13.29-7.08,28.44-7.64,45.3-6.69-8.89-5.79-16.7-4.58-23.9-3.9-10.71,1.01-21.54,2.32-30.68,8.18-10.23-2.74-20.34-5.79-30.31-9.13,1.38-.96,2.7-2,3.61-3.55,1.32,1.73,3.23,2.73,5.19,2.06,15.77-5.41,32.18-5.73,48.55-6.55,.25-.01,.44-1.05,.71-1.71-4.34-3.13-10.33-1.8-14.47-5.36,14.84-3.75,29.96-1.02,44.92-2.08h.01c-.42,.56-.81,1.08-1.19,1.58-.37,.5-.71,.97-1.04,1.41-.32,.45-.62,.87-.89,1.26-.41,.6-.76,1.14-1.05,1.65-.2,.33-.37,.65-.51,.95-.58,1.23-.7,2.19-.3,3.05,.06,.14,.14,.27,.23,.41,1.1,1.65,4.22,3.05,9.76,5.58,10.53,4.81,21.1,9.04,32.97,8.38Z"/><path class="cls-15" d="M404.14,674.64c8.76,16.08,15.84,32.81,19.46,50.86-14.41,7.07-28.1,15.3-40.86,25.06-7.7-8.61-15.43-17.21-20.84-27.55,19.62-11.28,29.15-31.38,42.24-48.37Z"/><path class="cls-14" d="M360.5,789.12c-8.28,3-16.89,2.07-25.42,2.09-1.87,0-4.4,.44-4.97-2.02-.54-2.33,1.65-3.4,3.43-4.14,7.37-3.07,14.78-6.02,21.96-11.01-6.97-.93-13.94-1.86-20.9-2.79-2.02-.27-4.28-.8-4.6-2.98-.38-2.63,2.28-2.73,4.04-3.37,6.71-2.44,13.73-.82,20.57-1.58,2.64-2.19,8.37,.05,8.69-4.38,.24-3.39-4.63-3.93-7.31-5.61-.55-.35-1.16-.6-1.72-.94-1.87-1.15-5.01-1.85-4.32-4.53,.88-3.41,4.38-2.2,6.71-1.99,9.17,.83,17.77,3.87,26.15,7.58l11.2,4.35c1.51,7.15,3.02,14.31,4.54,21.46-4.1,6.45-11.93,9.88-14.37,17.69-7.89,1.96-10.92,11.8-19.78,12.17-2.58-.08-5.15-.15-7.73-.23,1.36-6.21,6.41-10.29,9.07-15.75,1.13-2.31,5.97-4.02,2.98-6.81-2.71-2.52-5.81,.69-8.23,2.8Z"/><path class="cls-4" d="M382.81,753.44c-8.38-3.71-16.97-6.74-26.15-7.58-2.33-.21-5.84-1.42-6.71,1.99-.69,2.68,2.46,3.38,4.32,4.53,.55,.34,1.17,.59,1.72,.94,2.68,1.69,7.55,2.22,7.31,5.61-.32,4.43-6.04,2.19-8.69,4.38-2.6-6.82-7.69-11.88-12.7-16.79-2.98-2.92-5.07-5.81-5.32-9.95,7.67-4.35,11.07-12.45,7.68-20.36-3.02-7.06-9.56-8.62-16.35-7.26-4.32,.87-8.32,3.38-12.46,5.15-2.25-.1-4.69,.12-6.04-2.2-4.77-8.15-12.42-13.89-17.91-21.43,10.66-3.14,21.57-4.27,32.63-3.83,6.49,.26,10.29,4.81,14.33,9.2,8.11,8.8,13.62,19.83,23.45,27.14,5.41,10.35,13.14,18.95,20.83,27.56,.02,.96,.05,1.92,.07,2.88Z"/><path class="cls-6" d="M518.66,332.54c3.66,7.26,7.51,14.43,10.88,21.81,1.64,3.59,1.71,8.44-3.85,7.22-14.47-3.18-28.67-.5-42.97,.42,.93-7.17,1.86-14.34,2.79-21.51,10.6-17.88,24.3-21.92,43.05-12.55,12.46,6.23,21.34,16.06,27.79,28.25,.87,4.57,1.73,9.14,2.6,13.71-5.25-.16-5.5-4.53-6.95-8.06-6.26-15.18-16.11-26.4-33.15-29.5-.31-.11-.61-.22-.92-.33l.73,.52Z"/><path class="cls-4" d="M364.4,809.12c8.86-.38,11.89-10.22,19.78-12.17-5.57,18.32-11.15,36.64-16.69,54.97-1.5,4.97-5.54,6.2-9.87,6.45-4.86,.27-9.76-.07-14.64-.15,2.48-10.4,4.95-20.8,7.43-31.2,.7-.06,1.4-.11,2.1-.16,8.51-2.86,11.69-9.3,11.89-17.74Z"/><path class="cls-14" d="M495.4,1035.26c-4.16,6.88-10.33,10.68-17,13.55-6.23-.55-12.42-1.21-18.58-1.98,11.85-3.73,23.5-8.19,35.58-11.57Z"/><path class="cls-8" d="M319.24,443.23c1.19-6.05-1.31-8.26-7.41-8.15-4.88,.09-10.22,1.53-14.61-3.73h22.46c-8.75-9.13-19.39-9.81-30.31-10.41-5.75-.32-12.42,3.39-17.28-2.8,14.11-2.22,28.14-2.24,41.56,3.13,5.14,2.06,7.69,1.65,9.5-3.84,1.65-5.02,4.38-9.59,9.44-12.14,2.53,8.74-5.77,13.14-8.34,19.89-3.53,9.3-.27,18.87-3.31,27.87-.57-3.27-1.14-6.55-1.71-9.82Z"/><path class="cls-12" d="M289.56,745.99c8.88,2.61,17.72,5.11,17.73,17.08,.01,11.38-3.79,15.47-15.64,16.17,3.83-11.37-.91-22.19-2.09-33.25Z"/><path class="cls-10" d="M402.03,1008.69c4.14,3.56,10.13,2.23,14.47,5.35-.26,.67-.46,1.7-.7,1.72-16.37,.82-32.79,1.14-48.55,6.55-1.96,.67-3.87-.33-5.19-2.06,4.34-8.02,12.49-8.82,20.11-10.64,2.16,3.98,3.31,2.42,4.17-.75,5.23-.06,10.47-.11,15.7-.17Z"/><path class="cls-4" d="M296.38,837.03c2.94-.14,5.88-.4,8.82-.39,12.76,.07,15.27,2.82,17.46,18.84-5.37-10.29-14.87-13.9-25.43-15.93-.43-.08-.58-1.65-.86-2.53Z"/><path class="cls-15" d="M1192.99,300.66c-5.21,0-10.43,.01-15.64,.01,5.21-2.88,10.42-2.86,15.64-.01Z"/><path class="cls-8" d="M321.34,460.88c1.98,3.11,4.41,6.15,1.55,10-2.01-3.1-1.89-6.54-1.55-10Z"/><path class="cls-14" d="M386.33,1008.86c-.86,3.18-2.01,4.73-4.17,.75,1.39-.25,2.78-.5,4.17-.75Z"/><path class="cls-8" d="M321.06,455.1c.08,1.84,.16,3.69,.24,5.53-1.29-1.79-1.02-3.65-.24-5.53Z"/><path class="cls-11" d="M684.8,435.59c-1.38-.74-2.76-1.47-4.15-2.21,1.75,.04,3.32,.42,4.15,2.21Z"/><polygon class="cls-7" points="704.52 682.52 705.1 682.82 704.63 682.41 704.52 682.52"/><path class="cls-15" d="M621.71,563.72c5.8,21.03,13.63,41.09,21.91,61.07,8.62,20.82,24.24,36.54,37.12,54.27,1.73,2.39,3.9,4.37,4.12,7.64,1.87,28.79,13.55,53.12,33.38,73.84,1.94,2.03,3.97,5.22,3.84,7.76-.85,16.57,11.37,25.63,20.25,36.65,12.45,15.45,28.35,28.39,35.13,47.99,13.14,38.02,16.98,75.73-5.96,111.62-10.35,16.19-26.16,26.8-43.1,34.93-17.7,8.5-35.35,17.53-54.98,21.3-12.93,2.49-25.88,4.33-39.07,3.66-2.9-.15-6.64-.21-7.37-3.56-.65-2.98,3.06-3.94,5.07-5.27,38.81-25.66,66.4-60.13,76.98-105.63,7.35-31.61,5.96-63.99-3.59-95.48-11.6-38.3-27.7-74.88-42.48-111.99-13.07-32.82-31.21-63.65-39.78-98.19-3.26-13.13-5.05-26.79-1.46-40.61Z"/><path class="cls-13" d="M594.75,456.64c22.3-19.77,60.32-20.59,81.42-1.75,24.08,21.49,21.99,50.1-4.19,68.98-20.52,14.79-39.86,10.69-66.86-6.83,17.91-1.46,25.42-7.52,29.44-25.08,2.14-9.32,1.4-19.02,.39-28.43-.61-5.72-4.76-8.63-10.86-10.95-11.13-4.23-19.5,3.68-29.33,4.06Z"/><path class="cls-14" d="M594.75,456.64c9.83-.38,18.2-8.3,29.33-4.06,6.11,2.32,10.25,5.23,10.86,10.95,1.01,9.42,1.75,19.11-.39,28.43-4.02,17.56-11.53,23.63-29.44,25.08-7.77-4.52-7.99-10.47-4.66-18.27,6.72-15.75,3.64-24.14-10.68-32.78-1.7-1.03-5.41-.56-4.47-3.86,.59-2.08,3.14-3.1,5.59-3.2,1.15-.7,2.29-1.4,3.43-2.11l.43-.19Z"/><polygon class="cls-13" points="532.62 1044.29 532.62 1044.32 532.59 1044.32 532.62 1044.29"/><path class="cls-13" d="M551.88,1050.24c-7.75,.38-15.55,.6-23.39,.64,2.12-1.6,3.91-3.41,4.13-6.56,2.58-.05,3.83-1.43,3.93-3.96l.22-.22c1.73,.86,3.8,1.36,5.15,2.63,3.19,3,6.5,5.51,9.96,7.47Z"/><path class="cls-3" d="M491.1,423.34c9.24,8.08,10.14,20.47,2.13,29.26-8.49,9.31-21.88,10.31-30.69,2.29-9.11-8.3-9.64-22.8-1.16-31.82,7.37-7.85,21.09-7.7,29.77,.32-2.22-.32-4.44-.88-6.67-.93-7.26-.15-10.71,4.14-11.01,10.79-.3,6.52,4.48,9.61,9.96,9.53,7.08-.1,10.19-5.04,9.54-11.96-.24-2.53-1.23-4.98-1.87-7.47Z"/><path class="cls-14" d="M350.51,409.57c13.11,5.46,20.3,18.91,17.33,32.17-1.66,7.42-7.87,8.58-13.55,8.82-8,.33-15.89-1.08-17.95-11.08,6.16-8.29,19.2-13.47,12.53-27.64-.19-.41,1.06-1.49,1.64-2.26Z"/><path class="cls-2" d="M481.32,524.13c14.97,9.18,26.71,22.04,38.89,34.37,25.3,25.6,44.69,55.53,62.97,86.26,1.28,2.14,3.75,4.01,.86,7.74-8.49-11.05-15.1-23.05-22.75-34.24-20.86-30.53-45.62-57.49-72.06-83.1-3.22-3.12-7.53-5.59-8.2-10.73l.3-.3Z"/><path class="cls-2" d="M479.19,563.83c-9.25-2.85-13-11.69-18.57-18.13-16.96-19.6-36.2-36.93-53.92-55.76-2.04-2.17-4.46-3.9-4.62-7.2h0c4.14,.44,7.39,2.58,10.25,5.42,22.35,22.23,44.11,44.99,63.86,69.61,1.47,1.83,2.91,3.56,3.03,6.03l-.03,.03Z"/><path class="cls-13" d="M350.51,409.57c-.58,.77-1.84,1.85-1.64,2.26,6.67,14.18-6.38,19.35-12.53,27.64-4.24-6.94-2.31-14.52-.9-21.41,1.48-7.22,7.75-9.7,15.08-8.5Z"/><path class="cls-3" d="M382.35,379.91c-1.59-7.17,2.32-11.26,8.13-14.05,5.5-2.64,10.93-3.44,15.36,2.16-5.62,.12-10.96,.63-11.43,8.05-4.02,1.28-8.05,2.56-12.07,3.84Z"/><path class="cls-2" d="M481.03,524.43c-8.93-2.39-14.52-8.89-19.63-15.97l.04-.04c8.74,2.56,15.12,8.11,19.89,15.71l-.29,.3Z"/><path class="cls-15" d="M834.56,950.38c-.98,.72-1.97,1.44-2.96,2.14-.51,.04-1.03,.06-1.55,.06-.39,0-.79-.01-1.18-.03-.39-.02-.79-.05-1.18-.09-.37-.03-.74-.07-1.11-.12-2-.26-3.99-.68-5.99-1.08-.69-.14-1.39-.28-2.09-.4-1.74-.32-3.49-.56-5.25-.61,.05-.95,.1-1.89,.16-2.83,7.17,.17,14.19,1.41,21.15,2.96Z"/><path class="cls-6" d="M394.42,376.07c.47-7.42,5.81-7.93,11.43-8.05,.33,.5,.48,1.04,.45,1.64-1.72,6.28-7.33,5.37-11.88,6.42Z"/><path class="cls-2" d="M461.39,508.46c-5.38-1.58-9.59-4.57-11.88-9.87l.07-.08c5.6,1.33,10.66,3.3,11.85,9.9l-.04,.04Z"/><path class="cls-2" d="M520.75,631.03c-4.59-2.8-5.72-7.49-6.31-12.49,3.97,3.14,6.38,7.15,6.29,12.51l.02-.02Z"/><path class="cls-2" d="M402.09,482.74c-2.55-1.66-6.23-2-7.25-7.04,4.94,.44,6.67,3.07,7.26,7.03h0Z"/><path class="cls-2" d="M498.01,592.45c3.33,.35,3.84,2.48,4.03,4.68,.03,.3-1.65,1.17-1.89,.98-1.73-1.42-2.69-3.22-2.14-5.67Z"/><path class="cls-2" d="M520.73,631.05c3.89,.69,5.12,3.08,4.96,7.11-4.14-1.3-4.37-4.32-4.94-7.13l-.02,.02Z"/><path class="cls-2" d="M587.53,655.79c2.82,.42,3.33,2.54,3.5,4.74,.02,.26-1.73,1.07-1.93,.88-1.52-1.5-3.22-3.09-1.57-5.61Z"/><path class="cls-2" d="M483.2,571.67c4.92,.44,6.06,3.71,5.92,7.93l-.04,.04c-3.15-1.76-5.54-4.08-5.95-7.9l.07-.07Z"/><path class="cls-2" d="M508.34,608.35c2.9,.29,3.36,2.46,3.59,4.62,.03,.28-1.7,1.16-1.88,.99-1.55-1.49-3.27-3.05-1.72-5.61Z"/><path class="cls-2" d="M441.65,492.61c3.62,.66,7.15,1.44,7.93,5.91l-.07,.08c-3.63-.65-7.12-1.5-7.89-5.95l.03-.04Z"/><path class="cls-2" d="M441.62,492.64c-4.21,.12-7.49-1.02-7.89-5.95h0c3.9,.28,6.18,2.74,7.92,5.91l-.03,.04Z"/><path class="cls-2" d="M494.54,586.41c.49,.23,1.24,.35,1.4,.73,.15,.34-.34,.95-.54,1.45-.49-.23-1.24-.35-1.4-.73-.15-.34,.33-.96,.54-1.45Z"/><path class="cls-2" d="M489.12,579.6c1.23,.19,2.6,.26,2.84,1.84,.05,.31-.73,1.1-1.03,1.05-1.58-.24-1.62-1.63-1.85-2.85l.04-.04Z"/><path class="cls-2" d="M505.94,602.88c-.2,.5-.41,1-.61,1.5-.5-.23-1.25-.35-1.41-.72-.15-.35,.33-.97,.54-1.47,.5,.23,.99,.46,1.49,.69Z"/><path class="cls-2" d="M424.98,481.25c-.51,.19-1.15,.65-1.5,.49-.36-.17-.44-.94-.65-1.44,.51-.19,1.14-.65,1.5-.49,.36,.16,.44,.93,.64,1.44Z"/><path class="cls-8" d="M417.42,608.85c.75-.87,1.5-1.75,2.24-2.62,.39,.38,1.12,.76,1.11,1.13-.03,1.58-1.42,1.81-2.57,2.23-.25-.25-.52-.5-.79-.74Z"/><path class="cls-2" d="M479.23,563.8c.46,.66,.92,1.33,1.38,1.99l-.71,.43c-.23-.8-.47-1.6-.7-2.4l.03-.03Z"/><polygon class="cls-11" points="803.6 890.05 803.26 889.8 803.54 889.99 803.6 890.05"/><path class="cls-13" d="M594.32,456.83c-1.14,.7-2.29,1.4-3.43,2.11,1.14-.7,2.29-1.4,3.43-2.11Z"/><path class="cls-2" d="M433.73,486.69l-.72-.38,.73,.38h0Z"/><path class="cls-15" d="M1163.31,281.4c-.57,.04-1.14,.08-1.71,.11,.55-.27,1.12-.3,1.71-.11Z"/><path class="cls-2" d="M483.13,571.75l-.72-.47c.26,.13,.52,.27,.79,.4l-.07,.07Z"/><path class="cls-14" d="M532.62,1044.29v.03c-.22,3.15-2.01,4.96-4.13,6.56-1.02,.01-2.03,.01-3.05,.01-2.03,0-4.05-.01-6.07-.03,3.98-2.7,8.35-4.93,13.22-6.56,.01,0,.02-.01,.03-.01Z"/><path class="cls-12" d="M352.52,826.85c-.7,.05-1.4,.11-2.1,.16-12.91-.46-19.88-6.45-19.27-16.57,.55-9.04,10.7-16.63,21.49-14.66,6.66,1.21,7.03-2.35,7.85-6.66,2.42-2.11,5.52-5.32,8.23-2.8,3,2.79-1.85,4.5-2.98,6.81-2.66,5.46-7.72,9.54-9.07,15.75-2.95,5.63-3.61,11.79-4.15,17.97Z"/><path class="cls-9" d="M315.45,714.12c4.14-1.77,8.14-4.29,12.46-5.15,6.79-1.36,13.33,.19,16.35,7.26,3.39,7.92,0,16.01-7.68,20.36-2.47-.34-4.95-.68-7.42-1.01-1.55-6.71-6.5-10.42-12.06-13.56-.55-2.63-1.1-5.26-1.65-7.89Z"/><path class="cls-4" d="M317.1,722c5.56,3.15,10.51,6.85,12.06,13.56-8.32-.7-13.55-4.14-12.06-13.56Z"/><path class="cls-6" d="M799.61,973.17c0,.2-.01,.4-.01,.6-.8,.5-1.61,1-2.42,1.48-1.36-.23-2.65-.68-3.59-2.03,1.92-2.87,3.95-.81,5.95-.13l.07,.08Z"/><path class="cls-6" d="M802.15,972.2c-.64,.4-1.27,.8-1.91,1.18l-.63-.21-.07-.08c1.16-1.15,1.99-1.35,2.61-.89Z"/><path class="cls-14" d="M536.55,1040.36c-.1,2.54-1.36,3.91-3.96,3.95,.15-2.49,1.55-3.72,3.96-3.95Z"/><path class="cls-10" d="M443.33,1028.65c-16.86-.95-32.01-.39-45.3,6.69-3.11-.77-6.2-1.57-9.28-2.41,9.14-5.86,19.97-7.17,30.68-8.18,7.2-.68,15.01-1.89,23.9,3.9Z"/><path class="cls-9" d="M352.52,826.85c.54-6.18,1.21-12.34,4.15-17.97,2.58,.08,5.16,.15,7.73,.23-.2,8.43-3.38,14.87-11.89,17.74Z"/><path class="cls-7" d="M518.66,332.54l-.73-.52c.3,.11,.61,.22,.92,.33l-.18,.19Z"/><path class="cls-15" d="M800.24,973.38c-.21,.14-.43,.27-.64,.39,0-.2,.01-.4,.01-.6l.63,.21Z"/><path class="cls-6" d="M491.1,423.34c.65,2.49,1.64,4.94,1.87,7.47,.65,6.93-2.46,11.86-9.54,11.96-5.48,.08-10.26-3.01-9.96-9.53,.3-6.65,3.76-10.94,11.01-10.79,2.23,.05,4.45,.6,6.67,.93l-.05-.04Z"/></g></g></svg>